<svg width="26" height="27" viewBox="0 0 26 27" fill="none" xmlns="http://www.w3.org/2000/svg">
<g filter="url(#filter0_d_7_2984)">
<path d="M15.0833 12.8417C15.15 12.9167 15.15 13.075 15.0833 13.1667C14.475 13.75 13.3416 13.8 13 13.8C12.675 13.8 11.5416 13.75 10.95 13.1667C10.8666 13.075 10.8666 12.9167 10.95 12.8417C11.0416 12.7583 11.1833 12.7583 11.2666 12.8417C11.65 13.225 12.4416 13.3333 13 13.3333C13.575 13.3333 14.3833 13.225 14.75 12.8417C14.8416 12.7583 14.9833 12.7583 15.0833 12.8417ZM11.9583 10.8667C11.9583 10.3917 11.5666 10 11.0916 10C10.6166 10 10.225 10.3917 10.225 10.8667C10.225 11.3417 10.6166 11.7417 11.0916 11.7333C11.5666 11.7333 11.9583 11.3417 11.9583 10.8667ZM14.9083 10C14.4333 10 14.0416 10.4167 14.0416 10.875C14.0416 11.3333 14.4333 11.7417 14.9083 11.7417C15.3833 11.7417 15.775 11.3417 15.775 10.875C15.775 10.4167 15.3833 10 14.9083 10ZM21.3333 10C21.3333 14.5833 17.5833 18.3333 13 18.3333C8.41663 18.3333 4.66663 14.5833 4.66663 10C4.66663 5.41667 8.41663 1.66667 13 1.66667C17.5833 1.66667 21.3333 5.41667 21.3333 10ZM18.5583 10C18.5583 9.325 18 8.78333 17.35 8.78333C17.0166 8.78333 16.7166 8.91667 16.5 9.125C15.6666 8.525 14.525 8.14167 13.25 8.09167L13.8083 5.48333L15.6166 5.875C15.6333 6.33333 16.0166 6.7 16.4833 6.7C16.9583 6.7 17.35 6.30833 17.35 5.83333C17.35 5.35833 16.9583 4.96667 16.4833 4.96667C16.1416 4.96667 15.8416 5.16667 15.7083 5.45833L13.6833 5.025C13.625 5 13.5666 5.025 13.525 5.05833C13.475 5.09167 13.45 5.14167 13.4416 5.2L12.825 8.1C11.5333 8.14167 10.3666 8.525 9.51663 9.13333C9.29996 8.925 8.99996 8.8 8.67496 8.8C7.99996 8.8 7.45829 9.34167 7.45829 10C7.45829 10.5083 7.75829 10.925 8.17496 11.1167C8.15829 11.25 8.14996 11.35 8.14996 11.4833C8.14996 13.3333 10.325 14.875 13 14.875C15.6916 14.875 17.875 13.3583 17.875 11.4833C17.875 11.3667 17.8666 11.25 17.8416 11.1167C18.2583 10.925 18.5583 10.5 18.5583 10Z" fill="white"/>
</g>
<defs>
<filter id="filter0_d_7_2984" x="-1" y="0" width="28" height="28" filterUnits="userSpaceOnUse" color-interpolation-filters="sRGB">
<feFlood flood-opacity="0" result="BackgroundImageFix"/>
<feColorMatrix in="SourceAlpha" type="matrix" values="0 0 0 0 0 0 0 0 0 0 0 0 0 0 0 0 0 0 127 0" result="hardAlpha"/>
<feOffset dy="4"/>
<feGaussianBlur stdDeviation="2"/>
<feComposite in2="hardAlpha" operator="out"/>
<feColorMatrix type="matrix" values="0 0 0 0 0 0 0 0 0 0 0 0 0 0 0 0 0 0 0.25 0"/>
<feBlend mode="normal" in2="BackgroundImageFix" result="effect1_dropShadow_7_2984"/>
<feBlend mode="normal" in="SourceGraphic" in2="effect1_dropShadow_7_2984" result="shape"/>
</filter>
</defs>
</svg>
