<svg width="20" height="20" viewBox="0 0 20 20" fill="none" xmlns="http://www.w3.org/2000/svg">
<path d="M9.99996 1.66667C8.90561 1.66667 7.82198 1.88222 6.81093 2.30101C5.79988 2.71979 4.88122 3.33362 4.1074 4.10744C2.5446 5.67025 1.66663 7.78986 1.66663 10C1.66663 13.6833 4.05829 16.8083 7.36663 17.9167C7.78329 17.9833 7.91663 17.725 7.91663 17.5V16.0917C5.60829 16.5917 5.11663 14.975 5.11663 14.975C4.73329 14.0083 4.19163 13.75 4.19163 13.75C3.43329 13.2333 4.24996 13.25 4.24996 13.25C5.08329 13.3083 5.52496 14.1083 5.52496 14.1083C6.24996 15.375 7.47496 15 7.94996 14.8C8.02496 14.2583 8.24163 13.8917 8.47496 13.6833C6.62496 13.475 4.68329 12.7583 4.68329 9.58333C4.68329 8.65833 4.99996 7.91667 5.54163 7.325C5.45829 7.11667 5.16663 6.25 5.62496 5.125C5.62496 5.125 6.32496 4.9 7.91663 5.975C8.57496 5.79167 9.29163 5.7 9.99996 5.7C10.7083 5.7 11.425 5.79167 12.0833 5.975C13.675 4.9 14.375 5.125 14.375 5.125C14.8333 6.25 14.5416 7.11667 14.4583 7.325C15 7.91667 15.3166 8.65833 15.3166 9.58333C15.3166 12.7667 13.3666 13.4667 11.5083 13.675C11.8083 13.9333 12.0833 14.4417 12.0833 15.2167V17.5C12.0833 17.725 12.2166 17.9917 12.6416 17.9167C15.95 16.8 18.3333 13.6833 18.3333 10C18.3333 8.90565 18.1177 7.82202 17.699 6.81097C17.2802 5.79993 16.6663 4.88127 15.8925 4.10744C15.1187 3.33362 14.2 2.71979 13.189 2.30101C12.1779 1.88222 11.0943 1.66667 9.99996 1.66667Z" fill="white"/>
</svg>
